<?xml version="1.0" standalone="no"?>
 <!DOCTYPE svg PUBLIC "-//W3C//DTD SVG 1.1//EN" 
 "http://www.w3.org/Graphics/SVG/1.1/DTD/svg11.dtd"> 
<svg
  xmlns:svg="http://www.w3.org/2000/svg"
  xmlns="http://www.w3.org/2000/svg"
  xmlns:xlink="http://www.w3.org/1999/xlink"
  version="1.1"
  width="29.700220cm" height="21.000720cm" viewBox="0 0 116930 82680">
<title>SVG Picture created as motoVindicator-Edge_Cuts.svg date 2021/07/19 11:26:08 </title>
  <desc>Picture generated by PCBNEW </desc>
<g style="fill:#000000; fill-opacity:1;stroke:#000000; stroke-opacity:1;
stroke-linecap:round; stroke-linejoin:round;"
 transform="translate(0 0) scale(1 1)">
</g>
<g style="fill:#000000; fill-opacity:0.0; 
stroke:#000000; stroke-width:-0.000393701; stroke-opacity:1; 
stroke-linecap:round; stroke-linejoin:round;">
</g>
<g style="fill:#000000; fill-opacity:0.0; 
stroke:#000000; stroke-width:39.3701; stroke-opacity:1; 
stroke-linecap:round; stroke-linejoin:round;">
</g>
<g style="fill:#000000; fill-opacity:0.0; 
stroke:#000000; stroke-width:59.0551; stroke-opacity:1; 
stroke-linecap:round; stroke-linejoin:round;">
<rect x="69685.9" y="65357.2" width="42519.7" height="12598.4" rx="0" />
</g>
<g style="fill:#000000; fill-opacity:0.0; 
stroke:#000000; stroke-width:39.3701; stroke-opacity:1; 
stroke-linecap:round; stroke-linejoin:round;">
</g>
<g style="fill:#000000; fill-opacity:0.0; 
stroke:#000000; stroke-width:59.0551; stroke-opacity:1; 
stroke-linecap:round; stroke-linejoin:round;">
<rect x="3937.01" y="3937.01" width="109056" height="74806" rx="0" />
</g>
<g style="fill:#000000; fill-opacity:0.0; 
stroke:#000000; stroke-width:39.3701; stroke-opacity:1; 
stroke-linecap:round; stroke-linejoin:round;">
</g>
<g style="fill:#000000; fill-opacity:0.0; 
stroke:#000000; stroke-width:59.0551; stroke-opacity:1; 
stroke-linecap:round; stroke-linejoin:round;">
<rect x="4724.41" y="4724.41" width="107481" height="73231.2" rx="0" />
</g>
<g style="fill:#000000; fill-opacity:0.0; 
stroke:#000000; stroke-width:39.3701; stroke-opacity:1; 
stroke-linecap:round; stroke-linejoin:round;">
</g>
<g style="fill:#000000; fill-opacity:0.0; 
stroke:#000000; stroke-width:59.0551; stroke-opacity:1; 
stroke-linecap:round; stroke-linejoin:round;">
<path d="M23622 4724
L23622 3937
" />
</g>
<g style="fill:#000000; fill-opacity:0.0; 
stroke:#000000; stroke-width:39.3701; stroke-opacity:1; 
stroke-linecap:round; stroke-linejoin:round;">
</g>
<g style="fill:#000000; fill-opacity:0.0; 
stroke:#000000; stroke-width:59.0551; stroke-opacity:1; 
stroke-linecap:round; stroke-linejoin:round;">
<path d="M43307 4724
L43307 3937
" />
</g>
<g style="fill:#000000; fill-opacity:0.0; 
stroke:#000000; stroke-width:39.3701; stroke-opacity:1; 
stroke-linecap:round; stroke-linejoin:round;">
</g>
<g style="fill:#000000; fill-opacity:0.0; 
stroke:#000000; stroke-width:59.0551; stroke-opacity:1; 
stroke-linecap:round; stroke-linejoin:round;">
<path d="M62992 4724
L62992 3937
" />
</g>
<g style="fill:#000000; fill-opacity:0.0; 
stroke:#000000; stroke-width:39.3701; stroke-opacity:1; 
stroke-linecap:round; stroke-linejoin:round;">
</g>
<g style="fill:#000000; fill-opacity:0.0; 
stroke:#000000; stroke-width:59.0551; stroke-opacity:1; 
stroke-linecap:round; stroke-linejoin:round;">
<path d="M82677 4724
L82677 3937
" />
</g>
<g style="fill:#000000; fill-opacity:0.0; 
stroke:#000000; stroke-width:39.3701; stroke-opacity:1; 
stroke-linecap:round; stroke-linejoin:round;">
</g>
<g style="fill:#000000; fill-opacity:0.0; 
stroke:#000000; stroke-width:59.0551; stroke-opacity:1; 
stroke-linecap:round; stroke-linejoin:round;">
<path d="M102362 4724
L102362 3937
" />
</g>
<g style="fill:#000000; fill-opacity:0.0; 
stroke:#000000; stroke-width:39.3701; stroke-opacity:1; 
stroke-linecap:round; stroke-linejoin:round;">
</g>
<g style="fill:#000000; fill-opacity:0.0; 
stroke:#000000; stroke-width:59.0551; stroke-opacity:1; 
stroke-linecap:round; stroke-linejoin:round;">
<text x="13779.5" y="4586.61"
textLength="546.494" font-size="682.415" lengthAdjust="spacingAndGlyphs"
text-anchor="start" opacity="0">1</text>
<path d="M14199 4562
L13906 4562
" />
<path d="M14052 4562
L14052 4050
L14004 4123
L13955 4172
L13906 4196
" />
</g>
<g style="fill:#000000; fill-opacity:0.0; 
stroke:#000000; stroke-width:39.3701; stroke-opacity:1; 
stroke-linecap:round; stroke-linejoin:round;">
</g>
<g style="fill:#000000; fill-opacity:0.0; 
stroke:#000000; stroke-width:59.0551; stroke-opacity:1; 
stroke-linecap:round; stroke-linejoin:round;">
<text x="33464.6" y="4586.61"
textLength="546.494" font-size="682.415" lengthAdjust="spacingAndGlyphs"
text-anchor="start" opacity="0">2</text>
<path d="M33591 4099
L33615 4074
L33664 4050
L33786 4050
L33835 4074
L33859 4099
L33884 4147
L33884 4196
L33859 4269
L33567 4562
L33884 4562
" />
</g>
<g style="fill:#000000; fill-opacity:0.0; 
stroke:#000000; stroke-width:39.3701; stroke-opacity:1; 
stroke-linecap:round; stroke-linejoin:round;">
</g>
<g style="fill:#000000; fill-opacity:0.0; 
stroke:#000000; stroke-width:59.0551; stroke-opacity:1; 
stroke-linecap:round; stroke-linejoin:round;">
<text x="53149.6" y="4586.61"
textLength="546.494" font-size="682.415" lengthAdjust="spacingAndGlyphs"
text-anchor="start" opacity="0">3</text>
<path d="M53252 4050
L53569 4050
L53398 4245
L53471 4245
L53520 4269
L53544 4294
L53569 4342
L53569 4464
L53544 4513
L53520 4537
L53471 4562
L53325 4562
L53276 4537
L53252 4513
" />
</g>
<g style="fill:#000000; fill-opacity:0.0; 
stroke:#000000; stroke-width:39.3701; stroke-opacity:1; 
stroke-linecap:round; stroke-linejoin:round;">
</g>
<g style="fill:#000000; fill-opacity:0.0; 
stroke:#000000; stroke-width:59.0551; stroke-opacity:1; 
stroke-linecap:round; stroke-linejoin:round;">
<text x="72834.6" y="4586.61"
textLength="546.494" font-size="682.415" lengthAdjust="spacingAndGlyphs"
text-anchor="start" opacity="0">4</text>
<path d="M73205 4221
L73205 4562
" />
<path d="M73083 4026
L72961 4391
L73278 4391
" />
</g>
<g style="fill:#000000; fill-opacity:0.0; 
stroke:#000000; stroke-width:39.3701; stroke-opacity:1; 
stroke-linecap:round; stroke-linejoin:round;">
</g>
<g style="fill:#000000; fill-opacity:0.0; 
stroke:#000000; stroke-width:59.0551; stroke-opacity:1; 
stroke-linecap:round; stroke-linejoin:round;">
<text x="92519.7" y="4586.61"
textLength="546.494" font-size="682.415" lengthAdjust="spacingAndGlyphs"
text-anchor="start" opacity="0">5</text>
<path d="M92914 4050
L92671 4050
L92646 4294
L92671 4269
L92719 4245
L92841 4245
L92890 4269
L92914 4294
L92939 4342
L92939 4464
L92914 4513
L92890 4537
L92841 4562
L92719 4562
L92671 4537
L92646 4513
" />
</g>
<g style="fill:#000000; fill-opacity:0.0; 
stroke:#000000; stroke-width:39.3701; stroke-opacity:1; 
stroke-linecap:round; stroke-linejoin:round;">
</g>
<g style="fill:#000000; fill-opacity:0.0; 
stroke:#000000; stroke-width:59.0551; stroke-opacity:1; 
stroke-linecap:round; stroke-linejoin:round;">
<text x="112205" y="4586.61"
textLength="546.494" font-size="682.415" lengthAdjust="spacingAndGlyphs"
text-anchor="start" opacity="0">6</text>
<path d="M112575 4050
L112477 4050
L112429 4074
L112404 4099
L112356 4172
L112331 4269
L112331 4464
L112356 4513
L112380 4537
L112429 4562
L112526 4562
L112575 4537
L112599 4513
L112624 4464
L112624 4342
L112599 4294
L112575 4269
L112526 4245
L112429 4245
L112380 4269
L112356 4294
L112331 4342
" />
</g>
<g style="fill:#000000; fill-opacity:0.0; 
stroke:#000000; stroke-width:39.3701; stroke-opacity:1; 
stroke-linecap:round; stroke-linejoin:round;">
</g>
<g style="fill:#000000; fill-opacity:0.0; 
stroke:#000000; stroke-width:59.0551; stroke-opacity:1; 
stroke-linecap:round; stroke-linejoin:round;">
<path d="M23622 77955
L23622 78742
" />
</g>
<g style="fill:#000000; fill-opacity:0.0; 
stroke:#000000; stroke-width:39.3701; stroke-opacity:1; 
stroke-linecap:round; stroke-linejoin:round;">
</g>
<g style="fill:#000000; fill-opacity:0.0; 
stroke:#000000; stroke-width:59.0551; stroke-opacity:1; 
stroke-linecap:round; stroke-linejoin:round;">
<path d="M43307 77955
L43307 78742
" />
</g>
<g style="fill:#000000; fill-opacity:0.0; 
stroke:#000000; stroke-width:39.3701; stroke-opacity:1; 
stroke-linecap:round; stroke-linejoin:round;">
</g>
<g style="fill:#000000; fill-opacity:0.0; 
stroke:#000000; stroke-width:59.0551; stroke-opacity:1; 
stroke-linecap:round; stroke-linejoin:round;">
<path d="M62992 77955
L62992 78742
" />
</g>
<g style="fill:#000000; fill-opacity:0.0; 
stroke:#000000; stroke-width:39.3701; stroke-opacity:1; 
stroke-linecap:round; stroke-linejoin:round;">
</g>
<g style="fill:#000000; fill-opacity:0.0; 
stroke:#000000; stroke-width:59.0551; stroke-opacity:1; 
stroke-linecap:round; stroke-linejoin:round;">
<path d="M82677 77955
L82677 78742
" />
</g>
<g style="fill:#000000; fill-opacity:0.0; 
stroke:#000000; stroke-width:39.3701; stroke-opacity:1; 
stroke-linecap:round; stroke-linejoin:round;">
</g>
<g style="fill:#000000; fill-opacity:0.0; 
stroke:#000000; stroke-width:59.0551; stroke-opacity:1; 
stroke-linecap:round; stroke-linejoin:round;">
<path d="M102362 77955
L102362 78742
" />
</g>
<g style="fill:#000000; fill-opacity:0.0; 
stroke:#000000; stroke-width:39.3701; stroke-opacity:1; 
stroke-linecap:round; stroke-linejoin:round;">
</g>
<g style="fill:#000000; fill-opacity:0.0; 
stroke:#000000; stroke-width:59.0551; stroke-opacity:1; 
stroke-linecap:round; stroke-linejoin:round;">
<text x="13779.5" y="78605.2"
textLength="546.494" font-size="682.415" lengthAdjust="spacingAndGlyphs"
text-anchor="start" opacity="0">1</text>
<path d="M14199 78580
L13906 78580
" />
<path d="M14052 78580
L14052 78069
L14004 78142
L13955 78190
L13906 78215
" />
</g>
<g style="fill:#000000; fill-opacity:0.0; 
stroke:#000000; stroke-width:39.3701; stroke-opacity:1; 
stroke-linecap:round; stroke-linejoin:round;">
</g>
<g style="fill:#000000; fill-opacity:0.0; 
stroke:#000000; stroke-width:59.0551; stroke-opacity:1; 
stroke-linecap:round; stroke-linejoin:round;">
<text x="33464.6" y="78605.2"
textLength="546.494" font-size="682.415" lengthAdjust="spacingAndGlyphs"
text-anchor="start" opacity="0">2</text>
<path d="M33591 78117
L33615 78093
L33664 78069
L33786 78069
L33835 78093
L33859 78117
L33884 78166
L33884 78215
L33859 78288
L33567 78580
L33884 78580
" />
</g>
<g style="fill:#000000; fill-opacity:0.0; 
stroke:#000000; stroke-width:39.3701; stroke-opacity:1; 
stroke-linecap:round; stroke-linejoin:round;">
</g>
<g style="fill:#000000; fill-opacity:0.0; 
stroke:#000000; stroke-width:59.0551; stroke-opacity:1; 
stroke-linecap:round; stroke-linejoin:round;">
<text x="53149.6" y="78605.2"
textLength="546.494" font-size="682.415" lengthAdjust="spacingAndGlyphs"
text-anchor="start" opacity="0">3</text>
<path d="M53252 78069
L53569 78069
L53398 78263
L53471 78263
L53520 78288
L53544 78312
L53569 78361
L53569 78483
L53544 78532
L53520 78556
L53471 78580
L53325 78580
L53276 78556
L53252 78532
" />
</g>
<g style="fill:#000000; fill-opacity:0.0; 
stroke:#000000; stroke-width:39.3701; stroke-opacity:1; 
stroke-linecap:round; stroke-linejoin:round;">
</g>
<g style="fill:#000000; fill-opacity:0.0; 
stroke:#000000; stroke-width:59.0551; stroke-opacity:1; 
stroke-linecap:round; stroke-linejoin:round;">
<text x="72834.6" y="78605.2"
textLength="546.494" font-size="682.415" lengthAdjust="spacingAndGlyphs"
text-anchor="start" opacity="0">4</text>
<path d="M73205 78239
L73205 78580
" />
<path d="M73083 78044
L72961 78410
L73278 78410
" />
</g>
<g style="fill:#000000; fill-opacity:0.0; 
stroke:#000000; stroke-width:39.3701; stroke-opacity:1; 
stroke-linecap:round; stroke-linejoin:round;">
</g>
<g style="fill:#000000; fill-opacity:0.0; 
stroke:#000000; stroke-width:59.0551; stroke-opacity:1; 
stroke-linecap:round; stroke-linejoin:round;">
<text x="92519.7" y="78605.2"
textLength="546.494" font-size="682.415" lengthAdjust="spacingAndGlyphs"
text-anchor="start" opacity="0">5</text>
<path d="M92914 78069
L92671 78069
L92646 78312
L92671 78288
L92719 78263
L92841 78263
L92890 78288
L92914 78312
L92939 78361
L92939 78483
L92914 78532
L92890 78556
L92841 78580
L92719 78580
L92671 78556
L92646 78532
" />
</g>
<g style="fill:#000000; fill-opacity:0.0; 
stroke:#000000; stroke-width:39.3701; stroke-opacity:1; 
stroke-linecap:round; stroke-linejoin:round;">
</g>
<g style="fill:#000000; fill-opacity:0.0; 
stroke:#000000; stroke-width:59.0551; stroke-opacity:1; 
stroke-linecap:round; stroke-linejoin:round;">
<text x="112205" y="78605.2"
textLength="546.494" font-size="682.415" lengthAdjust="spacingAndGlyphs"
text-anchor="start" opacity="0">6</text>
<path d="M112575 78069
L112477 78069
L112429 78093
L112404 78117
L112356 78190
L112331 78288
L112331 78483
L112356 78532
L112380 78556
L112429 78580
L112526 78580
L112575 78556
L112599 78532
L112624 78483
L112624 78361
L112599 78312
L112575 78288
L112526 78263
L112429 78263
L112380 78288
L112356 78312
L112331 78361
" />
</g>
<g style="fill:#000000; fill-opacity:0.0; 
stroke:#000000; stroke-width:39.3701; stroke-opacity:1; 
stroke-linecap:round; stroke-linejoin:round;">
</g>
<g style="fill:#000000; fill-opacity:0.0; 
stroke:#000000; stroke-width:59.0551; stroke-opacity:1; 
stroke-linecap:round; stroke-linejoin:round;">
<path d="M3937 23622
L4724 23622
" />
</g>
<g style="fill:#000000; fill-opacity:0.0; 
stroke:#000000; stroke-width:39.3701; stroke-opacity:1; 
stroke-linecap:round; stroke-linejoin:round;">
</g>
<g style="fill:#000000; fill-opacity:0.0; 
stroke:#000000; stroke-width:59.0551; stroke-opacity:1; 
stroke-linecap:round; stroke-linejoin:round;">
<path d="M3937 43307
L4724 43307
" />
</g>
<g style="fill:#000000; fill-opacity:0.0; 
stroke:#000000; stroke-width:39.3701; stroke-opacity:1; 
stroke-linecap:round; stroke-linejoin:round;">
</g>
<g style="fill:#000000; fill-opacity:0.0; 
stroke:#000000; stroke-width:59.0551; stroke-opacity:1; 
stroke-linecap:round; stroke-linejoin:round;">
<path d="M3937 62992
L4724 62992
" />
</g>
<g style="fill:#000000; fill-opacity:0.0; 
stroke:#000000; stroke-width:39.3701; stroke-opacity:1; 
stroke-linecap:round; stroke-linejoin:round;">
</g>
<g style="fill:#000000; fill-opacity:0.0; 
stroke:#000000; stroke-width:59.0551; stroke-opacity:1; 
stroke-linecap:round; stroke-linejoin:round;">
<text x="4330.71" y="14035.4"
textLength="497.75" font-size="682.415" lengthAdjust="spacingAndGlyphs"
text-anchor="middle" opacity="0">A</text>
<path d="M4208 13864
L4452 13864
" />
<path d="M4160 14011
L4330 13499
L4501 14011
" />
</g>
<g style="fill:#000000; fill-opacity:0.0; 
stroke:#000000; stroke-width:39.3701; stroke-opacity:1; 
stroke-linecap:round; stroke-linejoin:round;">
</g>
<g style="fill:#000000; fill-opacity:0.0; 
stroke:#000000; stroke-width:59.0551; stroke-opacity:1; 
stroke-linecap:round; stroke-linejoin:round;">
<text x="4330.71" y="33720.5"
textLength="570.866" font-size="682.415" lengthAdjust="spacingAndGlyphs"
text-anchor="middle" opacity="0">B</text>
<path d="M4367 33428
L4440 33452
L4464 33476
L4489 33525
L4489 33598
L4464 33647
L4440 33671
L4391 33696
L4196 33696
L4196 33184
L4367 33184
L4416 33208
L4440 33233
L4464 33281
L4464 33330
L4440 33379
L4416 33403
L4367 33428
L4196 33428
" />
</g>
<g style="fill:#000000; fill-opacity:0.0; 
stroke:#000000; stroke-width:39.3701; stroke-opacity:1; 
stroke-linecap:round; stroke-linejoin:round;">
</g>
<g style="fill:#000000; fill-opacity:0.0; 
stroke:#000000; stroke-width:59.0551; stroke-opacity:1; 
stroke-linecap:round; stroke-linejoin:round;">
<text x="4330.71" y="53405.5"
textLength="570.866" font-size="682.415" lengthAdjust="spacingAndGlyphs"
text-anchor="middle" opacity="0">C</text>
<path d="M4489 53332
L4464 53356
L4391 53381
L4342 53381
L4269 53356
L4221 53308
L4196 53259
L4172 53161
L4172 53088
L4196 52991
L4221 52942
L4269 52893
L4342 52869
L4391 52869
L4464 52893
L4489 52918
" />
</g>
<g style="fill:#000000; fill-opacity:0.0; 
stroke:#000000; stroke-width:39.3701; stroke-opacity:1; 
stroke-linecap:round; stroke-linejoin:round;">
</g>
<g style="fill:#000000; fill-opacity:0.0; 
stroke:#000000; stroke-width:59.0551; stroke-opacity:1; 
stroke-linecap:round; stroke-linejoin:round;">
<text x="4330.71" y="73090.6"
textLength="570.866" font-size="682.415" lengthAdjust="spacingAndGlyphs"
text-anchor="middle" opacity="0">D</text>
<path d="M4196 73066
L4196 72554
L4318 72554
L4391 72578
L4440 72627
L4464 72676
L4489 72773
L4489 72846
L4464 72944
L4440 72993
L4391 73041
L4318 73066
L4196 73066
" />
</g>
<g style="fill:#000000; fill-opacity:0.0; 
stroke:#000000; stroke-width:39.3701; stroke-opacity:1; 
stroke-linecap:round; stroke-linejoin:round;">
</g>
<g style="fill:#000000; fill-opacity:0.0; 
stroke:#000000; stroke-width:59.0551; stroke-opacity:1; 
stroke-linecap:round; stroke-linejoin:round;">
<path d="M112992 23622
L112205 23622
" />
</g>
<g style="fill:#000000; fill-opacity:0.0; 
stroke:#000000; stroke-width:39.3701; stroke-opacity:1; 
stroke-linecap:round; stroke-linejoin:round;">
</g>
<g style="fill:#000000; fill-opacity:0.0; 
stroke:#000000; stroke-width:59.0551; stroke-opacity:1; 
stroke-linecap:round; stroke-linejoin:round;">
<path d="M112992 43307
L112205 43307
" />
</g>
<g style="fill:#000000; fill-opacity:0.0; 
stroke:#000000; stroke-width:39.3701; stroke-opacity:1; 
stroke-linecap:round; stroke-linejoin:round;">
</g>
<g style="fill:#000000; fill-opacity:0.0; 
stroke:#000000; stroke-width:59.0551; stroke-opacity:1; 
stroke-linecap:round; stroke-linejoin:round;">
<path d="M112992 62992
L112205 62992
" />
</g>
<g style="fill:#000000; fill-opacity:0.0; 
stroke:#000000; stroke-width:39.3701; stroke-opacity:1; 
stroke-linecap:round; stroke-linejoin:round;">
</g>
<g style="fill:#000000; fill-opacity:0.0; 
stroke:#000000; stroke-width:59.0551; stroke-opacity:1; 
stroke-linecap:round; stroke-linejoin:round;">
<text x="112599" y="14035.4"
textLength="497.75" font-size="682.415" lengthAdjust="spacingAndGlyphs"
text-anchor="middle" opacity="0">A</text>
<path d="M112477 13864
L112721 13864
" />
<path d="M112428 14011
L112599 13499
L112769 14011
" />
</g>
<g style="fill:#000000; fill-opacity:0.0; 
stroke:#000000; stroke-width:39.3701; stroke-opacity:1; 
stroke-linecap:round; stroke-linejoin:round;">
</g>
<g style="fill:#000000; fill-opacity:0.0; 
stroke:#000000; stroke-width:59.0551; stroke-opacity:1; 
stroke-linecap:round; stroke-linejoin:round;">
<text x="112599" y="33720.5"
textLength="570.866" font-size="682.415" lengthAdjust="spacingAndGlyphs"
text-anchor="middle" opacity="0">B</text>
<path d="M112635 33428
L112708 33452
L112733 33476
L112757 33525
L112757 33598
L112733 33647
L112708 33671
L112660 33696
L112465 33696
L112465 33184
L112635 33184
L112684 33208
L112708 33233
L112733 33281
L112733 33330
L112708 33379
L112684 33403
L112635 33428
L112465 33428
" />
</g>
<g style="fill:#000000; fill-opacity:0.0; 
stroke:#000000; stroke-width:39.3701; stroke-opacity:1; 
stroke-linecap:round; stroke-linejoin:round;">
</g>
<g style="fill:#000000; fill-opacity:0.0; 
stroke:#000000; stroke-width:59.0551; stroke-opacity:1; 
stroke-linecap:round; stroke-linejoin:round;">
<text x="112599" y="53405.5"
textLength="570.866" font-size="682.415" lengthAdjust="spacingAndGlyphs"
text-anchor="middle" opacity="0">C</text>
<path d="M112757 53332
L112733 53356
L112660 53381
L112611 53381
L112538 53356
L112489 53308
L112465 53259
L112440 53161
L112440 53088
L112465 52991
L112489 52942
L112538 52893
L112611 52869
L112660 52869
L112733 52893
L112757 52918
" />
</g>
<g style="fill:#000000; fill-opacity:0.0; 
stroke:#000000; stroke-width:39.3701; stroke-opacity:1; 
stroke-linecap:round; stroke-linejoin:round;">
</g>
<g style="fill:#000000; fill-opacity:0.0; 
stroke:#000000; stroke-width:59.0551; stroke-opacity:1; 
stroke-linecap:round; stroke-linejoin:round;">
<text x="112599" y="73090.6"
textLength="570.866" font-size="682.415" lengthAdjust="spacingAndGlyphs"
text-anchor="middle" opacity="0">D</text>
<path d="M112465 73066
L112465 72554
L112587 72554
L112660 72578
L112708 72627
L112733 72676
L112757 72773
L112757 72846
L112733 72944
L112708 72993
L112660 73041
L112587 73066
L112465 73066
" />
</g>
<g style="fill:#000000; fill-opacity:0.0; 
stroke:#000000; stroke-width:39.3701; stroke-opacity:1; 
stroke-linecap:round; stroke-linejoin:round;">
</g>
<g style="fill:#000000; fill-opacity:0.0; 
stroke:#000000; stroke-width:59.0551; stroke-opacity:1; 
stroke-linecap:round; stroke-linejoin:round;">
<text x="78741" y="76321.7"
textLength="8720.47" font-size="787.402" lengthAdjust="spacingAndGlyphs"
text-anchor="start" opacity="0">Date: 2021-06-26</text>
<path d="M78911 76293
L78911 75703
L79051 75703
L79136 75731
L79192 75787
L79220 75843
L79248 75956
L79248 76040
L79220 76153
L79192 76209
L79136 76265
L79051 76293
L78911 76293
" />
<path d="M79754 76293
L79754 75984
L79726 75928
L79670 75899
L79557 75899
L79501 75928
" />
<path d="M79754 76265
L79698 76293
L79557 76293
L79501 76265
L79473 76209
L79473 76153
L79501 76096
L79557 76068
L79698 76068
L79754 76040
" />
<path d="M79951 75899
L80176 75899
" />
<path d="M80036 75703
L80036 76209
L80064 76265
L80120 76293
L80176 76293
" />
<path d="M80598 76265
L80542 76293
L80429 76293
L80373 76265
L80345 76209
L80345 75984
L80373 75928
L80429 75899
L80542 75899
L80598 75928
L80626 75984
L80626 76040
L80345 76096
" />
<path d="M80879 76237
L80907 76265
L80879 76293
L80851 76265
L80879 76237
L80879 76293
" />
<path d="M80879 75928
L80907 75956
L80879 75984
L80851 75956
L80879 75928
L80879 75984
" />
<path d="M81582 75759
L81610 75731
L81667 75703
L81807 75703
L81863 75731
L81892 75759
L81920 75815
L81920 75871
L81892 75956
L81554 76293
L81920 76293
" />
<path d="M82285 75703
L82341 75703
L82398 75731
L82426 75759
L82454 75815
L82482 75928
L82482 76068
L82454 76181
L82426 76237
L82398 76265
L82341 76293
L82285 76293
L82229 76265
L82201 76237
L82173 76181
L82145 76068
L82145 75928
L82173 75815
L82201 75759
L82229 75731
L82285 75703
" />
<path d="M82707 75759
L82735 75731
L82791 75703
L82932 75703
L82988 75731
L83016 75759
L83045 75815
L83045 75871
L83016 75956
L82679 76293
L83045 76293
" />
<path d="M83607 76293
L83269 76293
" />
<path d="M83438 76293
L83438 75703
L83382 75787
L83326 75843
L83269 75871
" />
<path d="M83860 76068
L84310 76068
" />
<path d="M84704 75703
L84760 75703
L84816 75731
L84844 75759
L84872 75815
L84901 75928
L84901 76068
L84872 76181
L84844 76237
L84816 76265
L84760 76293
L84704 76293
L84647 76265
L84619 76237
L84591 76181
L84563 76068
L84563 75928
L84591 75815
L84619 75759
L84647 75731
L84704 75703
" />
<path d="M85407 75703
L85294 75703
L85238 75731
L85210 75759
L85154 75843
L85126 75956
L85126 76181
L85154 76237
L85182 76265
L85238 76293
L85350 76293
L85407 76265
L85435 76237
L85463 76181
L85463 76040
L85435 75984
L85407 75956
L85350 75928
L85238 75928
L85182 75956
L85154 75984
L85126 76040
" />
<path d="M85716 76068
L86166 76068
" />
<path d="M86419 75759
L86447 75731
L86503 75703
L86644 75703
L86700 75731
L86728 75759
L86757 75815
L86757 75871
L86728 75956
L86391 76293
L86757 76293
" />
<path d="M87263 75703
L87150 75703
L87094 75731
L87066 75759
L87010 75843
L86982 75956
L86982 76181
L87010 76237
L87038 76265
L87094 76293
L87206 76293
L87263 76265
L87291 76237
L87319 76181
L87319 76040
L87291 75984
L87263 75956
L87206 75928
L87094 75928
L87038 75956
L87010 75984
L86982 76040
" />
</g>
<g style="fill:#000000; fill-opacity:0.0; 
stroke:#000000; stroke-width:39.3701; stroke-opacity:1; 
stroke-linecap:round; stroke-linejoin:round;">
</g>
<g style="fill:#000000; fill-opacity:0.0; 
stroke:#000000; stroke-width:59.0551; stroke-opacity:1; 
stroke-linecap:round; stroke-linejoin:round;">
<path d="M69685 76577
L112205 76577
" />
</g>
<g style="fill:#000000; fill-opacity:0.0; 
stroke:#000000; stroke-width:39.3701; stroke-opacity:1; 
stroke-linecap:round; stroke-linejoin:round;">
</g>
<g style="fill:#000000; fill-opacity:0.0; 
stroke:#000000; stroke-width:59.0551; stroke-opacity:1; 
stroke-linecap:round; stroke-linejoin:round;">
<text x="70079.6" y="77424.1"
textLength="25790.2" font-size="787.402" lengthAdjust="spacingAndGlyphs"
text-anchor="start" opacity="0">KiCad E.D.A.  kicad 5.1.10-88a1d61d58~88~ubuntu20.04.1</text>
<path d="M70249 77395
L70249 76805
" />
<path d="M70587 77395
L70334 77058
" />
<path d="M70587 76805
L70249 77142
" />
<path d="M70840 77395
L70840 77002
" />
<path d="M70840 76805
L70812 76833
L70840 76861
L70868 76833
L70840 76805
L70840 76861
" />
<path d="M71458 77339
L71430 77367
L71346 77395
L71290 77395
L71205 77367
L71149 77311
L71121 77255
L71093 77142
L71093 77058
L71121 76946
L71149 76889
L71205 76833
L71290 76805
L71346 76805
L71430 76833
L71458 76861
" />
<path d="M71965 77395
L71965 77086
L71937 77030
L71880 77002
L71768 77002
L71712 77030
" />
<path d="M71965 77367
L71908 77395
L71768 77395
L71712 77367
L71683 77311
L71683 77255
L71712 77199
L71768 77171
L71908 77171
L71965 77142
" />
<path d="M72499 77395
L72499 76805
" />
<path d="M72499 77367
L72443 77395
L72330 77395
L72274 77367
L72246 77339
L72218 77283
L72218 77114
L72246 77058
L72274 77030
L72330 77002
L72443 77002
L72499 77030
" />
<path d="M73230 77086
L73427 77086
" />
<path d="M73511 77395
L73230 77395
L73230 76805
L73511 76805
" />
<path d="M73764 77339
L73793 77367
L73764 77395
L73736 77367
L73764 77339
L73764 77395
" />
<path d="M74046 77395
L74046 76805
L74186 76805
L74271 76833
L74327 76889
L74355 76946
L74383 77058
L74383 77142
L74355 77255
L74327 77311
L74271 77367
L74186 77395
L74046 77395
" />
<path d="M74636 77339
L74664 77367
L74636 77395
L74608 77367
L74636 77339
L74636 77395
" />
<path d="M74889 77227
L75171 77227
" />
<path d="M74833 77395
L75030 76805
L75227 77395
" />
<path d="M75424 77339
L75452 77367
L75424 77395
L75395 77367
L75424 77339
L75424 77395
" />
<path d="M76605 77395
L76605 76805
" />
<path d="M76661 77171
L76830 77395
" />
<path d="M76830 77002
L76605 77227
" />
<path d="M77083 77395
L77083 77002
" />
<path d="M77083 76805
L77055 76833
L77083 76861
L77111 76833
L77083 76805
L77083 76861
" />
<path d="M77617 77367
L77561 77395
L77448 77395
L77392 77367
L77364 77339
L77336 77283
L77336 77114
L77364 77058
L77392 77030
L77448 77002
L77561 77002
L77617 77030
" />
<path d="M78123 77395
L78123 77086
L78095 77030
L78039 77002
L77926 77002
L77870 77030
" />
<path d="M78123 77367
L78067 77395
L77926 77395
L77870 77367
L77842 77311
L77842 77255
L77870 77199
L77926 77171
L78067 77171
L78123 77142
" />
<path d="M78658 77395
L78658 76805
" />
<path d="M78658 77367
L78601 77395
L78489 77395
L78433 77367
L78404 77339
L78376 77283
L78376 77114
L78404 77058
L78433 77030
L78489 77002
L78601 77002
L78658 77030
" />
<path d="M79670 76805
L79389 76805
L79361 77086
L79389 77058
L79445 77030
L79586 77030
L79642 77058
L79670 77086
L79698 77142
L79698 77283
L79670 77339
L79642 77367
L79586 77395
L79445 77395
L79389 77367
L79361 77339
" />
<path d="M79951 77339
L79979 77367
L79951 77395
L79923 77367
L79951 77339
L79951 77395
" />
<path d="M80542 77395
L80204 77395
" />
<path d="M80373 77395
L80373 76805
L80317 76889
L80260 76946
L80204 76974
" />
<path d="M80795 77339
L80823 77367
L80795 77395
L80767 77367
L80795 77339
L80795 77395
" />
<path d="M81385 77395
L81048 77395
" />
<path d="M81217 77395
L81217 76805
L81160 76889
L81104 76946
L81048 76974
" />
<path d="M81751 76805
L81807 76805
L81863 76833
L81892 76861
L81920 76917
L81948 77030
L81948 77171
L81920 77283
L81892 77339
L81863 77367
L81807 77395
L81751 77395
L81695 77367
L81667 77339
L81638 77283
L81610 77171
L81610 77030
L81638 76917
L81667 76861
L81695 76833
L81751 76805
" />
<path d="M82201 77171
L82651 77171
" />
<path d="M83016 77058
L82960 77030
L82932 77002
L82904 76946
L82904 76917
L82932 76861
L82960 76833
L83016 76805
L83129 76805
L83185 76833
L83213 76861
L83241 76917
L83241 76946
L83213 77002
L83185 77030
L83129 77058
L83016 77058
L82960 77086
L82932 77114
L82904 77171
L82904 77283
L82932 77339
L82960 77367
L83016 77395
L83129 77395
L83185 77367
L83213 77339
L83241 77283
L83241 77171
L83213 77114
L83185 77086
L83129 77058
" />
<path d="M83579 77058
L83523 77030
L83494 77002
L83466 76946
L83466 76917
L83494 76861
L83523 76833
L83579 76805
L83691 76805
L83748 76833
L83776 76861
L83804 76917
L83804 76946
L83776 77002
L83748 77030
L83691 77058
L83579 77058
L83523 77086
L83494 77114
L83466 77171
L83466 77283
L83494 77339
L83523 77367
L83579 77395
L83691 77395
L83748 77367
L83776 77339
L83804 77283
L83804 77171
L83776 77114
L83748 77086
L83691 77058
" />
<path d="M84310 77395
L84310 77086
L84282 77030
L84226 77002
L84113 77002
L84057 77030
" />
<path d="M84310 77367
L84254 77395
L84113 77395
L84057 77367
L84029 77311
L84029 77255
L84057 77199
L84113 77171
L84254 77171
L84310 77142
" />
<path d="M84901 77395
L84563 77395
" />
<path d="M84732 77395
L84732 76805
L84676 76889
L84619 76946
L84563 76974
" />
<path d="M85407 77395
L85407 76805
" />
<path d="M85407 77367
L85350 77395
L85238 77395
L85182 77367
L85154 77339
L85126 77283
L85126 77114
L85154 77058
L85182 77030
L85238 77002
L85350 77002
L85407 77030
" />
<path d="M85941 76805
L85829 76805
L85772 76833
L85744 76861
L85688 76946
L85660 77058
L85660 77283
L85688 77339
L85716 77367
L85772 77395
L85885 77395
L85941 77367
L85969 77339
L85997 77283
L85997 77142
L85969 77086
L85941 77058
L85885 77030
L85772 77030
L85716 77058
L85688 77086
L85660 77142
" />
<path d="M86560 77395
L86222 77395
" />
<path d="M86391 77395
L86391 76805
L86335 76889
L86278 76946
L86222 76974
" />
<path d="M87066 77395
L87066 76805
" />
<path d="M87066 77367
L87010 77395
L86897 77395
L86841 77367
L86813 77339
L86785 77283
L86785 77114
L86813 77058
L86841 77030
L86897 77002
L87010 77002
L87066 77030
" />
<path d="M87628 76805
L87347 76805
L87319 77086
L87347 77058
L87403 77030
L87544 77030
L87600 77058
L87628 77086
L87656 77142
L87656 77283
L87628 77339
L87600 77367
L87544 77395
L87403 77395
L87347 77367
L87319 77339
" />
<path d="M87994 77058
L87938 77030
L87910 77002
L87881 76946
L87881 76917
L87910 76861
L87938 76833
L87994 76805
L88106 76805
L88163 76833
L88191 76861
L88219 76917
L88219 76946
L88191 77002
L88163 77030
L88106 77058
L87994 77058
L87938 77086
L87910 77114
L87881 77171
L87881 77283
L87910 77339
L87938 77367
L87994 77395
L88106 77395
L88163 77367
L88191 77339
L88219 77283
L88219 77171
L88191 77114
L88163 77086
L88106 77058
" />
<path d="M88331 76644
L88894 76644
" />
<path d="M88556 77058
L88500 77030
L88472 77002
L88444 76946
L88444 76917
L88472 76861
L88500 76833
L88556 76805
L88669 76805
L88725 76833
L88753 76861
L88781 76917
L88781 76946
L88753 77002
L88725 77030
L88669 77058
L88556 77058
L88500 77086
L88472 77114
L88444 77171
L88444 77283
L88472 77339
L88500 77367
L88556 77395
L88669 77395
L88725 77367
L88753 77339
L88781 77283
L88781 77171
L88753 77114
L88725 77086
L88669 77058
" />
<path d="M88894 76644
L89456 76644
" />
<path d="M89119 77058
L89063 77030
L89034 77002
L89006 76946
L89006 76917
L89034 76861
L89063 76833
L89119 76805
L89231 76805
L89287 76833
L89316 76861
L89344 76917
L89344 76946
L89316 77002
L89287 77030
L89231 77058
L89119 77058
L89063 77086
L89034 77114
L89006 77171
L89006 77283
L89034 77339
L89063 77367
L89119 77395
L89231 77395
L89287 77367
L89316 77339
L89344 77283
L89344 77171
L89316 77114
L89287 77086
L89231 77058
" />
<path d="M89850 77002
L89850 77395
" />
<path d="M89597 77002
L89597 77311
L89625 77367
L89681 77395
L89766 77395
L89822 77367
L89850 77339
" />
<path d="M90131 77395
L90131 76805
" />
<path d="M90131 77030
L90187 77002
L90300 77002
L90356 77030
L90384 77058
L90412 77114
L90412 77283
L90384 77339
L90356 77367
L90300 77395
L90187 77395
L90131 77367
" />
<path d="M90919 77002
L90919 77395
" />
<path d="M90665 77002
L90665 77311
L90694 77367
L90750 77395
L90834 77395
L90890 77367
L90919 77339
" />
<path d="M91200 77002
L91200 77395
" />
<path d="M91200 77058
L91228 77030
L91284 77002
L91368 77002
L91425 77030
L91453 77086
L91453 77395
" />
<path d="M91650 77002
L91875 77002
" />
<path d="M91734 76805
L91734 77311
L91762 77367
L91818 77395
L91875 77395
" />
<path d="M92325 77002
L92325 77395
" />
<path d="M92072 77002
L92072 77311
L92100 77367
L92156 77395
L92240 77395
L92296 77367
L92325 77339
" />
<path d="M92578 76861
L92606 76833
L92662 76805
L92803 76805
L92859 76833
L92887 76861
L92915 76917
L92915 76974
L92887 77058
L92550 77395
L92915 77395
" />
<path d="M93281 76805
L93337 76805
L93393 76833
L93421 76861
L93449 76917
L93478 77030
L93478 77171
L93449 77283
L93421 77339
L93393 77367
L93337 77395
L93281 77395
L93224 77367
L93196 77339
L93168 77283
L93140 77171
L93140 77030
L93168 76917
L93196 76861
L93224 76833
L93281 76805
" />
<path d="M93731 77339
L93759 77367
L93731 77395
L93703 77367
L93731 77339
L93731 77395
" />
<path d="M94124 76805
L94181 76805
L94237 76833
L94265 76861
L94293 76917
L94321 77030
L94321 77171
L94293 77283
L94265 77339
L94237 77367
L94181 77395
L94124 77395
L94068 77367
L94040 77339
L94012 77283
L93984 77171
L93984 77030
L94012 76917
L94040 76861
L94068 76833
L94124 76805
" />
<path d="M94827 77002
L94827 77395
" />
<path d="M94687 76777
L94546 77199
L94912 77199
" />
<path d="M95137 77339
L95165 77367
L95137 77395
L95109 77367
L95137 77339
L95137 77395
" />
<path d="M95727 77395
L95390 77395
" />
<path d="M95559 77395
L95559 76805
L95502 76889
L95446 76946
L95390 76974
" />
</g>
<g style="fill:#000000; fill-opacity:0.0; 
stroke:#000000; stroke-width:39.3701; stroke-opacity:1; 
stroke-linecap:round; stroke-linejoin:round;">
</g>
<g style="fill:#000000; fill-opacity:0.0; 
stroke:#000000; stroke-width:59.0551; stroke-opacity:1; 
stroke-linecap:round; stroke-linejoin:round;">
<path d="M69685 75396
L112205 75396
" />
</g>
<g style="fill:#000000; fill-opacity:0.0; 
stroke:#000000; stroke-width:39.3701; stroke-opacity:1; 
stroke-linecap:round; stroke-linejoin:round;">
</g>
<g style="fill:#000000; fill-opacity:0.0; 
stroke:#000000; stroke-width:118.11; stroke-opacity:1; 
stroke-linecap:round; stroke-linejoin:round;">
<text x="103544" y="76321.7"
textLength="3742.97" font-size="787.402" lengthAdjust="spacingAndGlyphs"
text-anchor="start" opacity="0">Rev: 1.0</text>
<path d="M104099 76293
L103902 76012
" />
<path d="M103761 76293
L103761 75703
L103986 75703
L104042 75731
L104070 75759
L104099 75815
L104099 75899
L104070 75956
L104042 75984
L103986 76012
L103761 76012
" />
<path d="M104577 76265
L104520 76293
L104408 76293
L104352 76265
L104323 76209
L104323 75984
L104352 75928
L104408 75899
L104520 75899
L104577 75928
L104605 75984
L104605 76040
L104323 76096
" />
<path d="M104802 75899
L104942 76293
L105083 75899
" />
<path d="M105308 76237
L105336 76265
L105308 76293
L105280 76265
L105308 76237
L105308 76293
" />
<path d="M105308 75928
L105336 75956
L105308 75984
L105280 75956
L105308 75928
L105308 75984
" />
<path d="M106348 76293
L106011 76293
" />
<path d="M106180 76293
L106180 75703
L106123 75787
L106067 75843
L106011 75871
" />
<path d="M106601 76237
L106629 76265
L106601 76293
L106573 76265
L106601 76237
L106601 76293
" />
<path d="M106995 75703
L107051 75703
L107108 75731
L107136 75759
L107164 75815
L107192 75928
L107192 76068
L107164 76181
L107136 76237
L107108 76265
L107051 76293
L106995 76293
L106939 76265
L106911 76237
L106883 76181
L106854 76068
L106854 75928
L106883 75815
L106911 75759
L106939 75731
L106995 75703
" />
</g>
<g style="fill:#000000; fill-opacity:0.0; 
stroke:#000000; stroke-width:39.3701; stroke-opacity:1; 
stroke-linecap:round; stroke-linejoin:round;">
</g>
<g style="fill:#000000; fill-opacity:0.0; 
stroke:#000000; stroke-width:59.0551; stroke-opacity:1; 
stroke-linecap:round; stroke-linejoin:round;">
<text x="70079.6" y="76321.7"
textLength="3781.21" font-size="787.402" lengthAdjust="spacingAndGlyphs"
text-anchor="start" opacity="0">Size: A4</text>
<path d="M70221 76265
L70305 76293
L70446 76293
L70502 76265
L70530 76237
L70559 76181
L70559 76124
L70530 76068
L70502 76040
L70446 76012
L70334 75984
L70277 75956
L70249 75928
L70221 75871
L70221 75815
L70249 75759
L70277 75731
L70334 75703
L70474 75703
L70559 75731
" />
<path d="M70812 76293
L70812 75899
" />
<path d="M70812 75703
L70784 75731
L70812 75759
L70840 75731
L70812 75703
L70812 75759
" />
<path d="M71037 75899
L71346 75899
L71037 76293
L71346 76293
" />
<path d="M71796 76265
L71740 76293
L71627 76293
L71571 76265
L71543 76209
L71543 75984
L71571 75928
L71627 75899
L71740 75899
L71796 75928
L71824 75984
L71824 76040
L71543 76096
" />
<path d="M72077 76237
L72105 76265
L72077 76293
L72049 76265
L72077 76237
L72077 76293
" />
<path d="M72077 75928
L72105 75956
L72077 75984
L72049 75956
L72077 75928
L72077 75984
" />
<path d="M72780 76124
L73061 76124
" />
<path d="M72724 76293
L72921 75703
L73118 76293
" />
<path d="M73568 75899
L73568 76293
" />
<path d="M73427 75674
L73286 76096
L73652 76096
" />
</g>
<g style="fill:#000000; fill-opacity:0.0; 
stroke:#000000; stroke-width:39.3701; stroke-opacity:1; 
stroke-linecap:round; stroke-linejoin:round;">
</g>
<g style="fill:#000000; fill-opacity:0.0; 
stroke:#000000; stroke-width:59.0551; stroke-opacity:1; 
stroke-linecap:round; stroke-linejoin:round;">
<text x="103544" y="77424.1"
textLength="3349.27" font-size="787.402" lengthAdjust="spacingAndGlyphs"
text-anchor="start" opacity="0">Id: 1/1</text>
<path d="M103714 77395
L103714 76805
" />
<path d="M104248 77395
L104248 76805
" />
<path d="M104248 77367
L104192 77395
L104079 77395
L104023 77367
L103995 77339
L103967 77283
L103967 77114
L103995 77058
L104023 77030
L104079 77002
L104192 77002
L104248 77030
" />
<path d="M104529 77339
L104557 77367
L104529 77395
L104501 77367
L104529 77339
L104529 77395
" />
<path d="M104529 77030
L104557 77058
L104529 77086
L104501 77058
L104529 77030
L104529 77086
" />
<path d="M105570 77395
L105232 77395
" />
<path d="M105401 77395
L105401 76805
L105345 76889
L105289 76946
L105232 76974
" />
<path d="M106245 76777
L105739 77536
" />
<path d="M106751 77395
L106413 77395
" />
<path d="M106582 77395
L106582 76805
L106526 76889
L106470 76946
L106413 76974
" />
</g>
<g style="fill:#000000; fill-opacity:0.0; 
stroke:#000000; stroke-width:39.3701; stroke-opacity:1; 
stroke-linecap:round; stroke-linejoin:round;">
</g>
<g style="fill:#000000; fill-opacity:0.0; 
stroke:#000000; stroke-width:59.0551; stroke-opacity:1; 
stroke-linecap:round; stroke-linejoin:round;">
<path d="M69685 73821
L112205 73821
" />
</g>
<g style="fill:#000000; fill-opacity:0.0; 
stroke:#000000; stroke-width:39.3701; stroke-opacity:1; 
stroke-linecap:round; stroke-linejoin:round;">
</g>
<g style="fill:#000000; fill-opacity:0.0; 
stroke:#000000; stroke-width:157.48; stroke-opacity:1; 
stroke-linecap:round; stroke-linejoin:round;">
<text x="70079.6" y="74924.1"
textLength="16824.5" font-size="1049.87" lengthAdjust="spacingAndGlyphs"
text-anchor="start" opacity="0">Title: Voltage indicator RGB</text>
<path d="M70360 74099
L70810 74099
" />
<path d="M70486 74886
L70585 74099
" />
<path d="M70974 74886
L71039 74361
" />
<path d="M71072 74099
L71030 74136
L71063 74174
L71105 74136
L71072 74099
L71063 74174
" />
<path d="M71302 74361
L71602 74361
" />
<path d="M71447 74099
L71363 74774
L71391 74849
L71461 74886
L71536 74886
" />
<path d="M71911 74886
L71841 74849
L71813 74774
L71897 74099
" />
<path d="M72516 74849
L72436 74886
L72286 74886
L72216 74849
L72187 74774
L72225 74474
L72272 74399
L72352 74361
L72501 74361
L72572 74399
L72600 74474
L72591 74549
L72206 74624
" />
<path d="M72895 74811
L72928 74849
L72886 74886
L72853 74849
L72895 74811
L72886 74886
" />
<path d="M72947 74399
L72980 74436
L72937 74474
L72905 74436
L72947 74399
L72937 74474
" />
<path d="M73847 74099
L74011 74886
L74372 74099
" />
<path d="M74648 74886
L74578 74849
L74545 74811
L74517 74736
L74545 74511
L74592 74436
L74634 74399
L74714 74361
L74826 74361
L74897 74399
L74929 74436
L74957 74511
L74929 74736
L74882 74811
L74840 74849
L74761 74886
L74648 74886
" />
<path d="M75361 74886
L75290 74849
L75262 74774
L75346 74099
" />
<path d="M75614 74361
L75914 74361
" />
<path d="M75759 74099
L75675 74774
L75703 74849
L75773 74886
L75848 74886
" />
<path d="M76448 74886
L76499 74474
L76471 74399
L76401 74361
L76251 74361
L76171 74399
" />
<path d="M76453 74849
L76373 74886
L76185 74886
L76115 74849
L76087 74774
L76096 74699
L76143 74624
L76223 74586
L76410 74586
L76490 74549
" />
<path d="M77226 74361
L77146 74999
L77099 75074
L77057 75111
L76977 75149
L76865 75149
L76795 75111
" />
<path d="M77165 74849
L77085 74886
L76935 74886
L76865 74849
L76832 74811
L76804 74736
L76832 74511
L76879 74436
L76921 74399
L77001 74361
L77151 74361
L77221 74399
" />
<path d="M77840 74849
L77760 74886
L77610 74886
L77540 74849
L77512 74774
L77549 74474
L77596 74399
L77676 74361
L77826 74361
L77896 74399
L77924 74474
L77915 74549
L77531 74624
" />
<path d="M78810 74886
L78876 74361
" />
<path d="M78909 74099
L78866 74136
L78899 74174
L78941 74136
L78909 74099
L78899 74174
" />
<path d="M79251 74361
L79185 74886
" />
<path d="M79241 74436
L79283 74399
L79363 74361
L79476 74361
L79546 74399
L79574 74474
L79522 74886
" />
<path d="M80235 74886
L80333 74099
" />
<path d="M80240 74849
L80160 74886
L80010 74886
L79940 74849
L79907 74811
L79879 74736
L79907 74511
L79954 74436
L79996 74399
L80076 74361
L80226 74361
L80296 74399
" />
<path d="M80610 74886
L80675 74361
" />
<path d="M80708 74099
L80666 74136
L80699 74174
L80741 74136
L80708 74099
L80699 74174
" />
<path d="M81327 74849
L81247 74886
L81097 74886
L81027 74849
L80994 74811
L80966 74736
L80994 74511
L81041 74436
L81083 74399
L81163 74361
L81313 74361
L81383 74399
" />
<path d="M81997 74886
L82049 74474
L82021 74399
L81950 74361
L81800 74361
L81721 74399
" />
<path d="M82002 74849
L81922 74886
L81735 74886
L81664 74849
L81636 74774
L81646 74699
L81693 74624
L81772 74586
L81960 74586
L82039 74549
" />
<path d="M82325 74361
L82625 74361
" />
<path d="M82471 74099
L82386 74774
L82414 74849
L82485 74886
L82560 74886
" />
<path d="M82935 74886
L82864 74849
L82831 74811
L82803 74736
L82831 74511
L82878 74436
L82921 74399
L83000 74361
L83113 74361
L83183 74399
L83216 74436
L83244 74511
L83216 74736
L83169 74811
L83127 74849
L83047 74886
L82935 74886
" />
<path d="M83534 74886
L83600 74361
" />
<path d="M83581 74511
L83628 74436
L83670 74399
L83750 74361
L83825 74361
" />
<path d="M85072 74886
L84856 74511
" />
<path d="M84622 74886
L84720 74099
L85020 74099
L85091 74136
L85123 74174
L85151 74249
L85137 74361
L85091 74436
L85048 74474
L84969 74511
L84669 74511
" />
<path d="M85915 74136
L85845 74099
L85733 74099
L85615 74136
L85531 74211
L85484 74286
L85428 74436
L85414 74549
L85433 74699
L85461 74774
L85526 74849
L85634 74886
L85709 74886
L85826 74849
L85869 74811
L85901 74549
L85751 74549
" />
<path d="M86511 74474
L86618 74511
L86651 74549
L86679 74624
L86665 74736
L86618 74811
L86576 74849
L86497 74886
L86197 74886
L86295 74099
L86558 74099
L86628 74136
L86661 74174
L86689 74249
L86679 74324
L86633 74399
L86590 74436
L86511 74474
L86248 74474
" />
</g>
<g style="fill:#000000; fill-opacity:0.0; 
stroke:#000000; stroke-width:39.3701; stroke-opacity:1; 
stroke-linecap:round; stroke-linejoin:round;">
</g>
<g style="fill:#000000; fill-opacity:0.0; 
stroke:#000000; stroke-width:59.0551; stroke-opacity:1; 
stroke-linecap:round; stroke-linejoin:round;">
<text x="70079.6" y="73408.3"
textLength="13787.4" font-size="787.402" lengthAdjust="spacingAndGlyphs"
text-anchor="start" opacity="0">File: motoVindicator.kicad_pcb</text>
<path d="M70446 73070
L70249 73070
" />
<path d="M70249 73380
L70249 72789
L70530 72789
" />
<path d="M70755 73380
L70755 72986
" />
<path d="M70755 72789
L70727 72817
L70755 72845
L70784 72817
L70755 72789
L70755 72845
" />
<path d="M71121 73380
L71065 73352
L71037 73295
L71037 72789
" />
<path d="M71571 73352
L71515 73380
L71402 73380
L71346 73352
L71318 73295
L71318 73070
L71346 73014
L71402 72986
L71515 72986
L71571 73014
L71599 73070
L71599 73127
L71318 73183
" />
<path d="M71852 73323
L71880 73352
L71852 73380
L71824 73352
L71852 73323
L71852 73380
" />
<path d="M71852 73014
L71880 73042
L71852 73070
L71824 73042
L71852 73014
L71852 73070
" />
<path d="M72583 73380
L72583 72986
" />
<path d="M72583 73042
L72611 73014
L72668 72986
L72752 72986
L72808 73014
L72836 73070
L72836 73380
" />
<path d="M72836 73070
L72865 73014
L72921 72986
L73005 72986
L73061 73014
L73090 73070
L73090 73380
" />
<path d="M73455 73380
L73399 73352
L73371 73323
L73343 73267
L73343 73099
L73371 73042
L73399 73014
L73455 72986
L73539 72986
L73596 73014
L73624 73042
L73652 73099
L73652 73267
L73624 73323
L73596 73352
L73539 73380
L73455 73380
" />
<path d="M73821 72986
L74046 72986
" />
<path d="M73905 72789
L73905 73295
L73933 73352
L73989 73380
L74046 73380
" />
<path d="M74327 73380
L74271 73352
L74242 73323
L74214 73267
L74214 73099
L74242 73042
L74271 73014
L74327 72986
L74411 72986
L74467 73014
L74496 73042
L74524 73099
L74524 73267
L74496 73323
L74467 73352
L74411 73380
L74327 73380
" />
<path d="M74692 72789
L74889 73380
L75086 72789
" />
<path d="M75283 73380
L75283 72986
" />
<path d="M75283 72789
L75255 72817
L75283 72845
L75311 72817
L75283 72789
L75283 72845
" />
<path d="M75564 72986
L75564 73380
" />
<path d="M75564 73042
L75592 73014
L75649 72986
L75733 72986
L75789 73014
L75817 73070
L75817 73380
" />
<path d="M76352 73380
L76352 72789
" />
<path d="M76352 73352
L76295 73380
L76183 73380
L76127 73352
L76099 73323
L76070 73267
L76070 73099
L76099 73042
L76127 73014
L76183 72986
L76295 72986
L76352 73014
" />
<path d="M76633 73380
L76633 72986
" />
<path d="M76633 72789
L76605 72817
L76633 72845
L76661 72817
L76633 72789
L76633 72845
" />
<path d="M77167 73352
L77111 73380
L76998 73380
L76942 73352
L76914 73323
L76886 73267
L76886 73099
L76914 73042
L76942 73014
L76998 72986
L77111 72986
L77167 73014
" />
<path d="M77673 73380
L77673 73070
L77645 73014
L77589 72986
L77476 72986
L77420 73014
" />
<path d="M77673 73352
L77617 73380
L77476 73380
L77420 73352
L77392 73295
L77392 73239
L77420 73183
L77476 73155
L77617 73155
L77673 73127
" />
<path d="M77870 72986
L78095 72986
" />
<path d="M77955 72789
L77955 73295
L77983 73352
L78039 73380
L78095 73380
" />
<path d="M78376 73380
L78320 73352
L78292 73323
L78264 73267
L78264 73099
L78292 73042
L78320 73014
L78376 72986
L78461 72986
L78517 73014
L78545 73042
L78573 73099
L78573 73267
L78545 73323
L78517 73352
L78461 73380
L78376 73380
" />
<path d="M78826 73380
L78826 72986
" />
<path d="M78826 73099
L78854 73042
L78883 73014
L78939 72986
L78995 72986
" />
<path d="M79192 73323
L79220 73352
L79192 73380
L79164 73352
L79192 73323
L79192 73380
" />
<path d="M79473 73380
L79473 72789
" />
<path d="M79529 73155
L79698 73380
" />
<path d="M79698 72986
L79473 73211
" />
<path d="M79951 73380
L79951 72986
" />
<path d="M79951 72789
L79923 72817
L79951 72845
L79979 72817
L79951 72789
L79951 72845
" />
<path d="M80485 73352
L80429 73380
L80317 73380
L80260 73352
L80232 73323
L80204 73267
L80204 73099
L80232 73042
L80260 73014
L80317 72986
L80429 72986
L80485 73014
" />
<path d="M80992 73380
L80992 73070
L80964 73014
L80907 72986
L80795 72986
L80739 73014
" />
<path d="M80992 73352
L80935 73380
L80795 73380
L80739 73352
L80710 73295
L80710 73239
L80739 73183
L80795 73155
L80935 73155
L80992 73127
" />
<path d="M81526 73380
L81526 72789
" />
<path d="M81526 73352
L81470 73380
L81357 73380
L81301 73352
L81273 73323
L81245 73267
L81245 73099
L81273 73042
L81301 73014
L81357 72986
L81470 72986
L81526 73014
" />
<path d="M81667 73436
L82117 73436
" />
<path d="M82257 72986
L82257 73577
" />
<path d="M82257 73014
L82313 72986
L82426 72986
L82482 73014
L82510 73042
L82538 73099
L82538 73267
L82510 73323
L82482 73352
L82426 73380
L82313 73380
L82257 73352
" />
<path d="M83045 73352
L82988 73380
L82876 73380
L82820 73352
L82791 73323
L82763 73267
L82763 73099
L82791 73042
L82820 73014
L82876 72986
L82988 72986
L83045 73014
" />
<path d="M83298 73380
L83298 72789
" />
<path d="M83298 73014
L83354 72986
L83466 72986
L83523 73014
L83551 73042
L83579 73099
L83579 73267
L83551 73323
L83523 73352
L83466 73380
L83354 73380
L83298 73352
" />
</g>
<g style="fill:#000000; fill-opacity:0.0; 
stroke:#000000; stroke-width:39.3701; stroke-opacity:1; 
stroke-linecap:round; stroke-linejoin:round;">
</g>
<g style="fill:#000000; fill-opacity:0.0; 
stroke:#000000; stroke-width:59.0551; stroke-opacity:1; 
stroke-linecap:round; stroke-linejoin:round;">
<path d="M69685 71459
L112205 71459
" />
</g>
<g style="fill:#000000; fill-opacity:0.0; 
stroke:#000000; stroke-width:39.3701; stroke-opacity:1; 
stroke-linecap:round; stroke-linejoin:round;">
</g>
<g style="fill:#000000; fill-opacity:0.0; 
stroke:#000000; stroke-width:59.0551; stroke-opacity:1; 
stroke-linecap:round; stroke-linejoin:round;">
<text x="70079.6" y="72345.4"
textLength="3236.78" font-size="787.402" lengthAdjust="spacingAndGlyphs"
text-anchor="start" opacity="0">Sheet: </text>
<path d="M70221 72289
L70305 72317
L70446 72317
L70502 72289
L70530 72260
L70559 72204
L70559 72148
L70530 72092
L70502 72064
L70446 72036
L70334 72007
L70277 71979
L70249 71951
L70221 71895
L70221 71839
L70249 71782
L70277 71754
L70334 71726
L70474 71726
L70559 71754
" />
<path d="M70812 72317
L70812 71726
" />
<path d="M71065 72317
L71065 72007
L71037 71951
L70980 71923
L70896 71923
L70840 71951
L70812 71979
" />
<path d="M71571 72289
L71515 72317
L71402 72317
L71346 72289
L71318 72232
L71318 72007
L71346 71951
L71402 71923
L71515 71923
L71571 71951
L71599 72007
L71599 72064
L71318 72120
" />
<path d="M72077 72289
L72021 72317
L71908 72317
L71852 72289
L71824 72232
L71824 72007
L71852 71951
L71908 71923
L72021 71923
L72077 71951
L72105 72007
L72105 72064
L71824 72120
" />
<path d="M72274 71923
L72499 71923
" />
<path d="M72358 71726
L72358 72232
L72386 72289
L72443 72317
L72499 72317
" />
<path d="M72696 72260
L72724 72289
L72696 72317
L72668 72289
L72696 72260
L72696 72317
" />
<path d="M72696 71951
L72724 71979
L72696 72007
L72668 71979
L72696 71951
L72696 72007
" />
</g>
<g style="fill:#000000; fill-opacity:0.0; 
stroke:#000000; stroke-width:39.3701; stroke-opacity:1; 
stroke-linecap:round; stroke-linejoin:round;">
</g>
<g style="fill:#000000; fill-opacity:0.0; 
stroke:#000000; stroke-width:59.0551; stroke-opacity:1; 
stroke-linecap:round; stroke-linejoin:round;">
<text x="70079.6" y="67620.9"
textLength="26971.3" font-size="787.402" lengthAdjust="spacingAndGlyphs"
text-anchor="start" opacity="0">http://www.kn34pc.com/construct/kolo_hristov_av_rgb.html</text>
<path d="M70249 67592
L70249 67002
" />
<path d="M70502 67592
L70502 67283
L70474 67227
L70418 67199
L70334 67199
L70277 67227
L70249 67255
" />
<path d="M70699 67199
L70924 67199
" />
<path d="M70784 67002
L70784 67508
L70812 67564
L70868 67592
L70924 67592
" />
<path d="M71037 67199
L71262 67199
" />
<path d="M71121 67002
L71121 67508
L71149 67564
L71205 67592
L71262 67592
" />
<path d="M71458 67199
L71458 67789
" />
<path d="M71458 67227
L71515 67199
L71627 67199
L71683 67227
L71712 67255
L71740 67311
L71740 67480
L71712 67536
L71683 67564
L71627 67592
L71515 67592
L71458 67564
" />
<path d="M71993 67536
L72021 67564
L71993 67592
L71965 67564
L71993 67536
L71993 67592
" />
<path d="M71993 67227
L72021 67255
L71993 67283
L71965 67255
L71993 67227
L71993 67283
" />
<path d="M72696 66974
L72190 67733
" />
<path d="M73314 66974
L72808 67733
" />
<path d="M73455 67199
L73568 67592
L73680 67311
L73793 67592
L73905 67199
" />
<path d="M74074 67199
L74186 67592
L74299 67311
L74411 67592
L74524 67199
" />
<path d="M74692 67199
L74805 67592
L74917 67311
L75030 67592
L75142 67199
" />
<path d="M75367 67536
L75395 67564
L75367 67592
L75339 67564
L75367 67536
L75367 67592
" />
<path d="M75649 67592
L75649 67002
" />
<path d="M75705 67367
L75874 67592
" />
<path d="M75874 67199
L75649 67424
" />
<path d="M76127 67199
L76127 67592
" />
<path d="M76127 67255
L76155 67227
L76211 67199
L76295 67199
L76352 67227
L76380 67283
L76380 67592
" />
<path d="M76605 67002
L76970 67002
L76773 67227
L76858 67227
L76914 67255
L76942 67283
L76970 67339
L76970 67480
L76942 67536
L76914 67564
L76858 67592
L76689 67592
L76633 67564
L76605 67536
" />
<path d="M77476 67199
L77476 67592
" />
<path d="M77336 66974
L77195 67395
L77561 67395
" />
<path d="M77786 67199
L77786 67789
" />
<path d="M77786 67227
L77842 67199
L77955 67199
L78011 67227
L78039 67255
L78067 67311
L78067 67480
L78039 67536
L78011 67564
L77955 67592
L77842 67592
L77786 67564
" />
<path d="M78573 67564
L78517 67592
L78404 67592
L78348 67564
L78320 67536
L78292 67480
L78292 67311
L78320 67255
L78348 67227
L78404 67199
L78517 67199
L78573 67227
" />
<path d="M78826 67536
L78854 67564
L78826 67592
L78798 67564
L78826 67536
L78826 67592
" />
<path d="M79361 67564
L79304 67592
L79192 67592
L79136 67564
L79108 67536
L79079 67480
L79079 67311
L79108 67255
L79136 67227
L79192 67199
L79304 67199
L79361 67227
" />
<path d="M79698 67592
L79642 67564
L79614 67536
L79586 67480
L79586 67311
L79614 67255
L79642 67227
L79698 67199
L79782 67199
L79839 67227
L79867 67255
L79895 67311
L79895 67480
L79867 67536
L79839 67564
L79782 67592
L79698 67592
" />
<path d="M80148 67592
L80148 67199
" />
<path d="M80148 67255
L80176 67227
L80232 67199
L80317 67199
L80373 67227
L80401 67283
L80401 67592
" />
<path d="M80401 67283
L80429 67227
L80485 67199
L80570 67199
L80626 67227
L80654 67283
L80654 67592
" />
<path d="M81357 66974
L80851 67733
" />
<path d="M81807 67564
L81751 67592
L81638 67592
L81582 67564
L81554 67536
L81526 67480
L81526 67311
L81554 67255
L81582 67227
L81638 67199
L81751 67199
L81807 67227
" />
<path d="M82145 67592
L82088 67564
L82060 67536
L82032 67480
L82032 67311
L82060 67255
L82088 67227
L82145 67199
L82229 67199
L82285 67227
L82313 67255
L82341 67311
L82341 67480
L82313 67536
L82285 67564
L82229 67592
L82145 67592
" />
<path d="M82595 67199
L82595 67592
" />
<path d="M82595 67255
L82623 67227
L82679 67199
L82763 67199
L82820 67227
L82848 67283
L82848 67592
" />
<path d="M83101 67564
L83157 67592
L83269 67592
L83326 67564
L83354 67508
L83354 67480
L83326 67424
L83269 67395
L83185 67395
L83129 67367
L83101 67311
L83101 67283
L83129 67227
L83185 67199
L83269 67199
L83326 67227
" />
<path d="M83523 67199
L83748 67199
" />
<path d="M83607 67002
L83607 67508
L83635 67564
L83691 67592
L83748 67592
" />
<path d="M83944 67592
L83944 67199
" />
<path d="M83944 67311
L83973 67255
L84001 67227
L84057 67199
L84113 67199
" />
<path d="M84563 67199
L84563 67592
" />
<path d="M84310 67199
L84310 67508
L84338 67564
L84394 67592
L84479 67592
L84535 67564
L84563 67536
" />
<path d="M85097 67564
L85041 67592
L84929 67592
L84872 67564
L84844 67536
L84816 67480
L84816 67311
L84844 67255
L84872 67227
L84929 67199
L85041 67199
L85097 67227
" />
<path d="M85266 67199
L85491 67199
" />
<path d="M85350 67002
L85350 67508
L85379 67564
L85435 67592
L85491 67592
" />
<path d="M86110 66974
L85604 67733
" />
<path d="M86307 67592
L86307 67002
" />
<path d="M86363 67367
L86532 67592
" />
<path d="M86532 67199
L86307 67424
" />
<path d="M86869 67592
L86813 67564
L86785 67536
L86757 67480
L86757 67311
L86785 67255
L86813 67227
L86869 67199
L86953 67199
L87010 67227
L87038 67255
L87066 67311
L87066 67480
L87038 67536
L87010 67564
L86953 67592
L86869 67592
" />
<path d="M87403 67592
L87347 67564
L87319 67508
L87319 67002
" />
<path d="M87713 67592
L87656 67564
L87628 67536
L87600 67480
L87600 67311
L87628 67255
L87656 67227
L87713 67199
L87797 67199
L87853 67227
L87881 67255
L87910 67311
L87910 67480
L87881 67536
L87853 67564
L87797 67592
L87713 67592
" />
<path d="M88022 67649
L88472 67649
" />
<path d="M88613 67592
L88613 67002
" />
<path d="M88866 67592
L88866 67283
L88838 67227
L88781 67199
L88697 67199
L88641 67227
L88613 67255
" />
<path d="M89147 67592
L89147 67199
" />
<path d="M89147 67311
L89175 67255
L89203 67227
L89259 67199
L89316 67199
" />
<path d="M89512 67592
L89512 67199
" />
<path d="M89512 67002
L89484 67030
L89512 67058
L89541 67030
L89512 67002
L89512 67058
" />
<path d="M89766 67564
L89822 67592
L89934 67592
L89991 67564
L90019 67508
L90019 67480
L89991 67424
L89934 67395
L89850 67395
L89794 67367
L89766 67311
L89766 67283
L89794 67227
L89850 67199
L89934 67199
L89991 67227
" />
<path d="M90187 67199
L90412 67199
" />
<path d="M90272 67002
L90272 67508
L90300 67564
L90356 67592
L90412 67592
" />
<path d="M90694 67592
L90637 67564
L90609 67536
L90581 67480
L90581 67311
L90609 67255
L90637 67227
L90694 67199
L90778 67199
L90834 67227
L90862 67255
L90890 67311
L90890 67480
L90862 67536
L90834 67564
L90778 67592
L90694 67592
" />
<path d="M91087 67199
L91228 67592
L91368 67199
" />
<path d="M91453 67649
L91903 67649
" />
<path d="M92296 67592
L92296 67283
L92268 67227
L92212 67199
L92100 67199
L92043 67227
" />
<path d="M92296 67564
L92240 67592
L92100 67592
L92043 67564
L92015 67508
L92015 67452
L92043 67395
L92100 67367
L92240 67367
L92296 67339
" />
<path d="M92521 67199
L92662 67592
L92803 67199
" />
<path d="M92887 67649
L93337 67649
" />
<path d="M93478 67592
L93478 67199
" />
<path d="M93478 67311
L93506 67255
L93534 67227
L93590 67199
L93646 67199
" />
<path d="M94096 67199
L94096 67677
L94068 67733
L94040 67761
L93984 67789
L93899 67789
L93843 67761
" />
<path d="M94096 67564
L94040 67592
L93928 67592
L93871 67564
L93843 67536
L93815 67480
L93815 67311
L93843 67255
L93871 67227
L93928 67199
L94040 67199
L94096 67227
" />
<path d="M94377 67592
L94377 67002
" />
<path d="M94377 67227
L94434 67199
L94546 67199
L94602 67227
L94631 67255
L94659 67311
L94659 67480
L94631 67536
L94602 67564
L94546 67592
L94434 67592
L94377 67564
" />
<path d="M94912 67536
L94940 67564
L94912 67592
L94884 67564
L94912 67536
L94912 67592
" />
<path d="M95193 67592
L95193 67002
" />
<path d="M95446 67592
L95446 67283
L95418 67227
L95362 67199
L95277 67199
L95221 67227
L95193 67255
" />
<path d="M95643 67199
L95868 67199
" />
<path d="M95727 67002
L95727 67508
L95755 67564
L95812 67592
L95868 67592
" />
<path d="M96065 67592
L96065 67199
" />
<path d="M96065 67255
L96093 67227
L96149 67199
L96233 67199
L96290 67227
L96318 67283
L96318 67592
" />
<path d="M96318 67283
L96346 67227
L96402 67199
L96487 67199
L96543 67227
L96571 67283
L96571 67592
" />
<path d="M96937 67592
L96880 67564
L96852 67508
L96852 67002
" />
</g>
<g style="fill:#000000; fill-opacity:0.0; 
stroke:#000000; stroke-width:39.3701; stroke-opacity:1; 
stroke-linecap:round; stroke-linejoin:round;">
</g>
<g style="fill:#000000; fill-opacity:0.0; 
stroke:#000000; stroke-width:59.0551; stroke-opacity:1; 
stroke-linecap:round; stroke-linejoin:round;">
<path d="M77559 75396
L77559 76577
" />
</g>
<g style="fill:#000000; fill-opacity:0.0; 
stroke:#000000; stroke-width:39.3701; stroke-opacity:1; 
stroke-linecap:round; stroke-linejoin:round;">
</g>
<g style="fill:#000000; fill-opacity:0.0; 
stroke:#000000; stroke-width:59.0551; stroke-opacity:1; 
stroke-linecap:round; stroke-linejoin:round;">
<path d="M102756 75396
L102756 77955
" />
</g>
<g style="fill:#C2C200; fill-opacity:0.0; 
stroke:#C2C200; stroke-width:59.0551; stroke-opacity:1; 
stroke-linecap:round; stroke-linejoin:round;">
</g>
<g style="fill:#C2C200; fill-opacity:0.0; 
stroke:#C2C200; stroke-width:19.685; stroke-opacity:1; 
stroke-linecap:round; stroke-linejoin:round;">
<path d="M90000 7000
L69000 7000
" />
<path d="M90000 7500
L90000 7000
" />
<path d="M90000 14500
L90000 7500
" />
<path d="M69000 14500
L90000 14500
" />
<path d="M69000 7000
L69000 14500
" />
<g >
</g>
<g >
</g>
<g >
</g>
<g >
</g>
<g >
</g>
<g >
</g>
<g >
</g>
<g >
</g>
<g >
</g>
<g >
</g>
<g >
</g>
<g >
</g>
<g >
</g>
<g >
</g>
</g> 
</svg>
